<?xml version="1.0" encoding="UTF-8"?>
<svg id="Capa_2" data-name="Capa 2" xmlns="http://www.w3.org/2000/svg" viewBox="0 0 997.24 354.13">
  <defs>
    <style>
      .cls-1 {
        letter-spacing: .16em;
      }

      .cls-2 {
        fill: #fff;
      }

      .cls-3 {
        letter-spacing: .2em;
      }

      .cls-4 {
        font-family: LEMONMILK-Regular, 'LEMON MILK';
        font-size: 125.36px;
      }

      .cls-4, .cls-5 {
        fill: #fbb03b;
      }

      .cls-5 {
        font-family: LEMONMILK-Light, 'LEMON MILK';
        font-size: 60.5px;
        font-weight: 300;
      }
    </style>
  </defs>
  <g id="Capa_1-2" data-name="Capa 1">
    <g>
      <path class="cls-2" d="m280.93,161.71l11.43-8.17c4.11,7.2,11.77,11.31,20.63,11.31,10.34,0,18.17-4.97,18.17-12,0-8.51-12.11-13.66-22.85-18.29-10.8-4.8-22.8-10.4-22.8-24.85s13.08-25.6,29.65-25.6c13.14,0,22.97,6.34,26.74,16.46l-10.74,7.43c-2.86-6.23-9.2-9.71-15.88-9.71-8.46,0-15.2,5.26-15.2,11.77,0,7.2,8.51,9.77,19.71,14.57,14.57,6.4,25.88,13.43,25.88,27.94,0,16.34-14.17,26.86-32.85,26.86-15.14,0-26.63-7.09-31.88-17.71Z"/>
      <path class="cls-2" d="m372.53,100.01v23.6h34.85v14.4h-34.85v25.48h40.4v14.4h-54.85v-92.1h54.85v14.23h-40.4Z"/>
      <path class="cls-2" d="m491.38,149.83c0,14.11-10.68,28.05-28.97,28.05h-34.45v-92.1h25.14c15.88,0,26.62,11.43,26.62,23.65,0,9.94-6.91,16.57-10.34,16.57,10.34,0,22,9.48,22,23.83Zm-49.02-49.99v22.97l11.43-.06c7.14.06,12.4-4.86,12.4-11.43s-5.71-11.48-12.23-11.48h-11.6Zm34.91,49.02c0-6.97-5.94-13.37-16.4-13.37l-18.51.06v28.22h18.74c8.29,0,16.17-6,16.17-14.91Z"/>
      <path class="cls-2" d="m576.47,203.73v60.04s-45.24-41.27-47.82-53.88c-2.42-11.87,9.57-15.08,14.03-14.83s12.92,2.7,21.53,2.7c4.35,0,20.53-1.09,17.44-15.5-2.89-13.48-43.87-98.35-43.87-98.35h-.86l-43.3,93.98h15.66l6.27-13.99h43.59l6.29,13.99c1.85,4.39,1.18,7.57-1.73,9.76-2.9,2.19-8.58-.09-23.2-2.02s-20.68,5.91-23.57,16.73c-2.89,10.82,0,93.82,0,93.82h14.45v-60.04l58.91,61.53h.68v-93.93h-14.51Zm-55.31-52.24l16.21-35.99,16.18,35.99h-32.39Z"/>
      <path class="cls-2" d="m168.08,212.65l-65.79,55.2s-5.54-98.43,5.4-113.47c10.29-14.15,27.26-1.06,31.99,5.12,4.83,6.31,11.54,19.75,21.2,31.26,4.88,5.82,24.24,26.45,36.56,9.07,11.53-16.26,58.54-149.08,58.54-149.08l-.97-1.15-151.56,28.51,17.57,20.93,22.36-4.47,48.91,58.28-8.27,21.27c-2.73,6.51-6.97,8.54-12.63,6.67s-9.53-11.55-23.81-32.88c-14.1-21.06-29.67-22.22-44.78-16.14C87.69,137.85,0,218.03,0,218.03l16.21,19.32,65.79-55.2-1.33,135.34.77.91,102.92-86.36-16.28-19.4Zm-4.82-121.98l57.62-11.41-21.28,54.72-36.34-43.31Z"/>
      <path class="cls-2" d="m583.16,161.71l11.43-8.17c4.11,7.2,11.77,11.31,20.63,11.31,10.34,0,18.17-4.97,18.17-12,0-8.51-12.11-13.66-22.85-18.29-10.8-4.8-22.8-10.4-22.8-24.85s13.08-25.6,29.65-25.6c13.14,0,22.97,6.34,26.74,16.46l-10.74,7.43c-2.86-6.23-9.2-9.71-15.88-9.71-8.46,0-15.2,5.26-15.2,11.77,0,7.2,8.51,9.77,19.71,14.57,14.57,6.4,25.88,13.43,25.88,27.94,0,16.34-14.17,26.86-32.85,26.86-15.14,0-26.63-7.09-31.88-17.71Z"/>
      <path class="cls-2" d="m718.01,100.12h-24.68v77.76h-14.51v-77.76h-24.68v-14.34h63.88v14.34Z"/>
      <path class="cls-2" d="m729.51,85.78h14.45v92.1h-14.45v-92.1Z"/>
      <path class="cls-2" d="m819.67,163.89h-43.59l-6.29,14h-15.65l43.31-93.99h.86l43.31,93.99h-15.66l-6.28-14Zm-5.6-12.4l-16.17-35.99-16.23,35.99h32.4Z"/>
      <path class="cls-2" d="m925.9,85.55v93.93h-.69l-58.91-61.53v60.05h-14.45v-93.82h.74l58.79,61.42v-60.05h14.51Z"/>
      <path class="cls-2" d="m345.32,281.66v14.4h-55.54v-92.1h14.45v77.7h41.08Z"/>
      <path class="cls-2" d="m371.33,218.18v23.6h34.85v14.4h-34.85v25.48h40.4v14.4h-54.85v-92.1h54.85v14.23h-40.4Z"/>
      <path class="cls-2" d="m484.75,282.06h-43.59l-6.28,14h-15.66l43.31-93.99h.86l43.31,93.99h-15.66l-6.28-14Zm-5.6-12.4l-16.17-35.99-16.23,35.99h32.4Z"/>
      <path class="cls-2" d="m623.16,218.18v23.6h34.85v14.4h-34.85v25.48h40.4v14.4h-54.85v-92.1h54.85v14.23h-40.4Z"/>
      <path class="cls-2" d="m716.81,218.3h-41.77v-14.34h64.79l-41.71,77.7h41.71v14.4h-64.79l41.77-77.76Z"/>
      <text class="cls-5" transform="translate(280.93 58.43)"><tspan class="cls-3" x="0" y="0">Deve</tspan><tspan class="cls-1" x="211.92" y="0">l</tspan><tspan class="cls-3" x="256.75" y="0">oper</tspan></text>
      <polygon class="cls-2" points="997.24 326.27 967.04 354.13 280.93 309.64 952.98 315.01 955.32 315.03 955.32 0 997.24 326.27"/>
      <text class="cls-4" transform="translate(754.14 308.75)"><tspan x="0" y="0">&lt; &gt;</tspan></text>
    </g>
  </g>
</svg>