<?xml version="1.0" encoding="UTF-8"?>
<svg id="Capa_2" data-name="Capa 2" xmlns="http://www.w3.org/2000/svg" viewBox="0 0 583.18 438.13">
  <defs>
    <style>
      .cls-1 {
        fill: #0f0f0f;
      }

      .cls-2 {
        fill: #4d4d4d;
      }

      .cls-3 {
        fill: #232323;
      }

      .cls-4 {
        fill: #333;
      }

      .cls-5 {
        fill: #2d2d2d;
      }

      .cls-6 {
        fill: #1a1a1a;
      }
    </style>
  </defs>
  <g id="Capa_1-2" data-name="Capa 1">
    <g>
      <polygon class="cls-2" points="542.62 267.11 137.71 270.49 158.15 45.49 170.2 39.75 565.25 29.34 542.62 267.11"/>
      <polygon class="cls-5" points="532.38 262.69 135.92 262.69 158.15 45.49 556.15 34.94 532.38 262.69"/>
      <polygon class="cls-1" points="515.12 250.6 158.15 250.6 175.84 58.38 532.08 53.25 515.12 250.6"/>
      <polygon class="cls-2" points="451.32 388.97 6.78 380.82 0 365.09 147.52 268.49 542.62 267.11 451.32 388.97"/>
      <polygon class="cls-3" points="448.54 373.3 0 365.09 135.92 262.69 532.38 262.69 448.54 373.3"/>
      <polygon class="cls-6" points="421.44 361.01 41.03 354.51 155.84 268.72 491.35 268.72 421.44 361.01"/>
      <polygon class="cls-4" points="299.19 358.82 144 356.24 190.93 317.99 334.36 320.32 299.19 358.82"/>
      <path class="cls-4" d="m186.72,0c-21.69,4.54-46.89,9.36-58.5,30.21-11.47,22.27,8.37,42.86-11.87,68.7-9.63,12.68-24.63,20.99-34.72,32.25-6.33,7.14-11.37,16.39-10.38,26.13.64,7.03,5.54,14.15,12.24,17.08,2.3,1.04,4.89,1.52,7.52,1.36-2.54.71-5.33.65-7.98,0-8.21-2.24-14.44-9.28-16.37-17.69-2.36-11.31,2.38-22.86,9.24-31.64,9.64-12.49,23.69-20.67,32.99-33.14,15.09-18.56,1.98-38.52,8.77-59.09,4.57-13.61,16.66-23.47,29.74-28.31,12.56-4.73,26.24-5.56,39.32-5.85h0Z"/>
      <path class="cls-4" d="m581.86,284.74c4.75,15.46-4.01,31.98-15.32,42.45-6.54,6.25-15.54,10.82-23.21,15.48-9.59,5.72-18.07,13-24.37,21.98-2.77,4-6.16,10.66-8.61,14.93-7.76,13.61-16.58,27.28-28.87,37.5-22.18,18.47-53.83,26.23-81.47,17.4-12.03-3.72-22.97-10.32-31.5-18.94,25.28,14.72,56.46,16.67,82.52,3.85,25.73-12.17,36.91-31.61,50.76-55.15,4.78-8.6,11.67-16.23,19.34-22.13,4.98-3.95,10.74-7.34,16.42-10.06,10.84-5.18,21.25-8.66,29.9-17.04,8.5-7.82,14.65-18.27,14.4-30.28h0Z"/>
    </g>
  </g>
</svg>