<?xml version="1.0" encoding="UTF-8"?>
<svg id="Capa_2" data-name="Capa 2" xmlns="http://www.w3.org/2000/svg" viewBox="0 0 476.96 341.55">
  <defs>
    <style>
      .cls-1 {
        fill: #009245;
      }

      .cls-2 {
        fill: #0f0f0f;
      }

      .cls-3 {
        fill: #4d4d4d;
      }

      .cls-4 {
        fill: #232323;
      }

      .cls-5 {
        fill: #333;
      }

      .cls-6 {
        fill: #2d2d2d;
      }

      .cls-7 {
        fill: #1a1a1a;
      }
    </style>
  </defs>
  <g id="Capa_1-2" data-name="Capa 1">
    <g>
      <g>
        <polygon class="cls-3" points="455.58 228.54 63.19 236.34 82.58 4.34 87.61 0 452.26 0 455.58 228.54"/>
        <polygon class="cls-6" points="454.04 228.54 61.41 228.54 82.58 4.34 450.93 3.84 454.04 228.54"/>
        <polygon class="cls-2" points="440.61 216.45 83.64 216.45 99.91 21.07 434.84 21.93 440.61 216.45"/>
        <polygon class="cls-3" points="476.96 341.55 .66 334.55 0 314.72 73.01 234.34 455.58 228.54 476.96 319.79 476.96 341.55"/>
        <polygon class="cls-4" points="476.96 319.79 0 314.72 61.41 228.54 454.04 228.54 476.96 319.79"/>
        <polygon class="cls-7" points="449.85 307.5 35.67 305.03 81.32 234.57 428.73 236.34 449.85 307.5"/>
        <polygon class="cls-5" points="321.91 307.5 135.84 307.5 156.91 274.16 317.26 276.76 321.91 307.5"/>
      </g>
      <g>
        <path class="cls-1" d="m114.41,31.75c101.29-2.04,203.71-2.05,305,0-101.29,2.05-203.71,2.04-305,0h0Z"/>
        <path class="cls-1" d="m111.71,60.81c90.06-2.04,181.15-2.05,271.21,0-90.06,2.05-181.15,2.04-271.21,0h0Z"/>
        <path class="cls-1" d="m109,89.88c78.8-2.05,158.62-2.06,237.42,0-78.8,2.06-158.62,2.05-237.42,0h0Z"/>
        <path class="cls-1" d="m106.29,118.94c67.58-2.05,136.05-2.06,203.62,0-67.58,2.06-136.05,2.05-203.62,0h0Z"/>
        <path class="cls-1" d="m103.58,148c56.36-2.05,113.48-2.06,169.83,0-56.36,2.06-113.48,2.05-169.83,0h0Z"/>
        <path class="cls-1" d="m100.87,177.06c45.13-2.05,90.91-2.07,136.04,0-45.13,2.07-90.91,2.05-136.04,0h0Z"/>
        <path class="cls-1" d="m98.16,206.12c16.77-1.2,34.28-1.42,51.12-1.5,16.85.07,34.35.29,51.13,1.5-16.77,1.21-34.28,1.43-51.12,1.5-16.85-.08-34.35-.3-51.13-1.5h0Z"/>
        <path class="cls-1" d="m133.66,189.4c16.77-1.2,34.28-1.42,51.12-1.5,16.85.07,34.35.29,51.13,1.5-16.77,1.21-34.28,1.43-51.12,1.5-16.85-.07-34.35-.3-51.13-1.5h0Z"/>
        <path class="cls-1" d="m169.16,172.67c16.77-1.2,34.28-1.42,51.12-1.5,16.85.07,34.35.29,51.13,1.5-16.77,1.21-34.28,1.43-51.12,1.5-16.85-.08-34.35-.3-51.13-1.5h0Z"/>
        <path class="cls-1" d="m204.66,155.94c16.77-1.2,34.28-1.42,51.12-1.5,16.85.07,34.35.29,51.13,1.5-16.77,1.21-34.28,1.43-51.12,1.5-16.85-.08-34.35-.3-51.13-1.5h0Z"/>
        <path class="cls-1" d="m240.16,139.21c16.77-1.2,34.28-1.42,51.12-1.5,16.85.07,34.35.29,51.13,1.5-16.77,1.21-34.28,1.43-51.12,1.5-16.85-.07-34.35-.3-51.13-1.5h0Z"/>
        <path class="cls-1" d="m275.66,122.48c16.77-1.2,34.28-1.42,51.12-1.5,16.85.07,34.35.29,51.13,1.5-16.77,1.21-34.28,1.43-51.12,1.5-16.85-.08-34.35-.3-51.13-1.5h0Z"/>
        <path class="cls-1" d="m311.16,105.75c16.77-1.2,34.28-1.42,51.12-1.5,16.85.07,34.35.29,51.13,1.5-16.77,1.21-34.28,1.43-51.12,1.5-16.85-.08-34.35-.3-51.13-1.5h0Z"/>
      </g>
    </g>
  </g>
</svg>