<?xml version="1.0" encoding="UTF-8"?>
<svg id="Capa_2" data-name="Capa 2" xmlns="http://www.w3.org/2000/svg" viewBox="0 0 629.43 519.44">
  <defs>
    <style>
      .cls-1 {
        fill: #700;
      }

      .cls-2 {
        fill: #9e005d;
      }

      .cls-3 {
        fill: #4d4d4d;
      }

      .cls-4 {
        fill: #0a0a0a;
      }

      .cls-5 {
        fill: #009c00;
      }

      .cls-6 {
        fill: #e6e6e6;
      }

      .cls-6, .cls-7 {
        opacity: .72;
      }

      .cls-8 {
        fill: #006837;
      }

      .cls-9, .cls-10 {
        fill: #333;
      }

      .cls-11 {
        fill: #410041;
      }

      .cls-12 {
        fill: #f7931e;
      }

      .cls-13 {
        fill: #840059;
      }

      .cls-7 {
        fill: #f2f2f2;
      }

      .cls-14 {
        fill: #f79d1e;
      }

      .cls-15 {
        fill: #004837;
      }

      .cls-16 {
        fill: none;
        stroke: #f15a24;
        stroke-miterlimit: 10;
        stroke-width: 3px;
      }

      .cls-17 {
        fill: #fff;
        opacity: .15;
      }

      .cls-18 {
        fill: #004a37;
      }

      .cls-10 {
        opacity: .31;
      }

      .cls-19 {
        fill: #1a1a1a;
      }

      .cls-20 {
        fill: #40004d;
      }

      .cls-21 {
        fill: #00a99d;
      }

      .cls-22 {
        font-family: MyriadPro-Regular, 'Myriad Pro';
        font-size: 20px;
        letter-spacing: .2em;
      }

      .cls-23 {
        fill: #580049;
      }
    </style>
  </defs>
  <g id="Capa_1-2" data-name="Capa 1">
    <g>
      <path class="cls-17" d="m629.43,457.64c0-2.18-2.66-4.72-7.69-7.47C618.94,279.68,482.28,0,314.11,0S7.42,279.52,6.44,449.63c-4.22,2.78-6.44,5.48-6.44,8.02,0,19.01,141.17,61.8,315.32,61.8,51.61,0,100.31-3.85,143.31-9.74-.04-.05-.07-.1-.11-.15,101.5-14.01,170.9-39.33,170.9-51.9Z"/>
      <g>
        <path class="cls-11" d="m593.32,442.19s-124.73,47.47-278.6,47.47-278.6-51.09-278.6-51.09c0-153.87,124.73-408.79,278.6-408.79s278.6,258.55,278.6,412.42Z"/>
        <path class="cls-23" d="m532.2,452.6s-97.37,37.06-217.49,37.06-217.49-39.89-217.49-39.89c0-120.12,97.37-319.12,217.49-319.12s217.49,201.83,217.49,321.95Z"/>
        <path class="cls-20" d="m468.1,463.53s-68.67,26.14-153.38,26.14-153.38-28.13-153.38-28.13c0-84.71,68.67-225.06,153.38-225.06s153.38,142.34,153.38,227.05Z"/>
        <path class="cls-13" d="m600.24,444.17c0-13.97-120.59-44.17-271.99-45.9,35.55,22.12,70.51,44.53,101.47,74.53,5.67,5.74,10.35,11.98,14.77,18.51,92.46-12.66,155.75-35.72,155.75-47.14Z"/>
        <text class="cls-22" transform="translate(253.98 412.39)"><tspan x="0" y="0">z </tspan></text>
        <path class="cls-7" d="m526.55,368.76c-.78-8.35-6.94-15.14-14.98-16.86-3.44-5.03-9.22-8.34-15.77-8.34-2.04,0-4,.32-5.85.91-3.49-3.79-8.49-6.17-14.05-6.17-7.46,0-13.92,4.28-17.06,10.53-.22,0-.45-.01-.67-.01-10.54,0-19.08,8.54-19.08,19.08s8.54,19.08,19.08,19.08c2.36,0,4.61-.43,6.7-1.21,3.5,2.68,8.76,4.38,14.64,4.38,4.02,0,7.75-.8,10.82-2.15,3.08,1.36,6.8,2.15,10.82,2.15,1.95,0,3.82-.19,5.59-.53.26.01.53.02.8.02.84,0,1.67-.05,2.48-.16,1.01.1,2.04.16,3.09.16,10.54,0,19.08-5.47,19.08-12.21,0-3.39-2.16-6.46-5.65-8.67Z"/>
        <path class="cls-6" d="m361.88,311.54c1.79-9.45,9.56-16.53,18.92-17.63,4.47-5.37,11.42-8.52,18.9-7.81,2.33.22,4.53.8,6.57,1.67,4.39-3.95,10.36-6.13,16.7-5.53,8.52.81,15.43,6.39,18.34,13.86.25.02.51.03.77.06,12.03,1.14,20.86,11.81,19.72,23.84-1.14,12.03-11.81,20.86-23.84,19.72-2.69-.25-5.22-.99-7.51-2.1-4.28,2.68-10.47,4.05-17.19,3.42-4.59-.43-8.76-1.74-12.12-3.63-3.66,1.22-8,1.72-12.59,1.29-2.22-.21-4.34-.63-6.33-1.21-.3-.02-.61-.04-.91-.07-.96-.09-1.9-.24-2.81-.45-1.16.01-2.34-.04-3.54-.15-12.03-1.14-21.19-8.3-20.47-16,.37-3.87,3.17-7.14,7.39-9.29Z"/>
        <g>
          <ellipse class="cls-19" cx="415.06" cy="430.26" rx="5.46" ry="7.05" transform="translate(-138.81 655.26) rotate(-68.14)"/>
          <path class="cls-12" d="m457.84,392.63c8.33-5.47,17.69-6.5,26.47-16.88,0,0,4.73-5.83,7.54-12.85,10.24-25.52-2.15-54.5-27.66-64.74-25.52-10.24-54.5,2.15-64.74,27.66-2.8,6.97-3.41,14.03-3.43,14.53-.74,14.96,7.28,22.17,10.22,34.42,1.04,4.34,1.57,9.89.44,16.77,12.84,5.06,25.78,9.88,38.69,14.77,3.92-6.85,8.41-11.02,12.47-13.69Z"/>
          <path class="cls-14" d="m447.16,391.28c5.99-5.07,12.36-6.58,19-15.72,0,0,3.59-5.12,5.98-11.07,8.69-21.66,2.4-44.56-14.05-51.16-16.45-6.6-36.83,5.61-45.51,27.26-2.37,5.92-3.28,11.75-3.33,12.17-1.56,12.33,3.34,17.68,4.45,27.52.39,3.49.36,8.01-.89,13.72,8.28,3.24,16.65,6.29,24.99,9.39,3.12-5.9,6.43-9.63,9.36-12.11Z"/>
          <g>
            <g>
              <path class="cls-16" d="m443.25,329.36c4.05,8.07,5.02,17.31,1.67,26.77-2.83,7.5-9.08,12.42-16.33,14.68-7.32,2.83-12.2,9.59-14.04,17.74-1.84,8.15-.06,15.17,2.78,22.28"/>
              <path class="cls-16" d="m414.85,412.78c6.82-2.91,12.41-9.24,15.52-19.24,2.36-8.07,1.27-16.94-1.87-24.58-2.87-8.13-2.14-17.3,1.17-25.07,3.31-7.77,8.19-11.73,13.76-14.89"/>
            </g>
            <g>
              <path class="cls-16" d="m453.21,333.35c4.05,8.07,5.02,17.31,1.67,26.77-2.83,7.5-9.08,12.42-16.33,14.68-7.32,2.83-12.2,9.59-14.04,17.74-1.84,8.15-.06,15.17,2.78,22.28"/>
              <path class="cls-16" d="m424.8,416.78c6.82-2.91,12.41-9.24,15.52-19.24,2.36-8.07,1.27-16.94-1.87-24.58-2.87-8.13-2.14-17.3,1.17-25.07,3.31-7.77,8.19-11.73,13.76-14.89"/>
            </g>
          </g>
          <path class="cls-9" d="m406.68,391.54c-.93,5.64-2.97,12.16-6.77,19.66-3.21,10.63,8.22,19.34,14.33,21.79,6.45,2.59,18.95,2.88,23.72-6.52,1.9-8.52,4.5-15.07,7.41-20.15-12.91-4.89-25.85-9.71-38.69-14.77Z"/>
        </g>
        <path class="cls-2" d="m329.13,398.27c-4.49-.05-9-.08-13.53-.08-157.69,0-285.52,27.65-285.52,45.98,0,17.22,127.83,55.96,285.52,55.96,46.73,0,90.83-3.49,129.77-8.82-4.41-6.52-9.09-12.77-14.77-18.51-30.96-30-65.92-52.41-101.47-74.53Z"/>
        <path class="cls-10" d="m282.44,447.79c0,4.58-15.76,13.84-38.78,18.92-9.7,2.14-20.68,3.54-32.31,3.54-39.27,0-71.1-15.55-71.1-22.46,0-7.36,31.83-18.46,71.1-18.46,1.13,0,2.25.01,3.37.03,37.7.7,67.73,12.82,67.73,18.43Z"/>
        <path class="cls-10" d="m482.23,440.24c0,5.1-12.73,15.41-31.33,21.07-7.83,2.39-16.7,3.95-26.1,3.95-31.72,0-57.43-17.32-57.43-25.01,0-8.2,25.71-20.55,57.43-20.55.91,0,1.82.02,2.72.04,30.45.77,54.71,14.28,54.71,20.52Z"/>
        <g>
          <rect class="cls-4" x="149.68" y="282.35" width="97.75" height="165.63" rx="14.25" ry="14.25" transform="translate(-117.57 95.29) rotate(-20.98)"/>
          <rect class="cls-19" x="154.7" y="281.42" width="92.56" height="165.63" rx="14.25" ry="14.25" transform="translate(-117.08 96.1) rotate(-20.98)"/>
          <rect class="cls-21" x="163.11" y="299.1" width="73.07" height="123.29" rx="5.43" ry="5.43" transform="translate(-115.92 95.39) rotate(-20.98)"/>
        </g>
        <path class="cls-3" d="m233.77,426.33c1.39,3.62-.44,7.96-4.4,9.86-4.37,2.1-9.6.46-11.26-3.86-1.66-4.32,1.14-9.04,5.79-10.4,4.21-1.23,8.48.78,9.86,4.4Z"/>
        <path class="cls-9" d="m232.98,426.64c1.25,3.25-.39,7.16-3.95,8.87-3.93,1.89-8.63.41-10.12-3.47-1.49-3.89,1.02-8.12,5.2-9.35,3.79-1.11,7.62.7,8.87,3.95Z"/>
        <path class="cls-18" d="m206.85,245.31l-9.53,9.86c-1.04,1.08-1.09,2.72-.1,3.68l7.51,7.26c.99.95,2.63.85,3.67-.22l5.66-5.85,22.53,21.78-5.61,5.8c-1.07,1.1-1.12,2.79-.1,3.77l7.42,7.17c1.01.98,2.7.87,3.77-.23l9.48-9.81c5.77-5.97,6.02-15.09.56-20.37l-24.91-24.08c-5.46-5.28-14.57-4.73-20.34,1.24Z"/>
        <path class="cls-8" d="m205.59,246.61l-8.48,8.77c-.93.96-.9,2.49.06,3.41l7.3,7.06c.96.93,2.49.9,3.41-.06l5.04-5.21,21.9,21.18-4.99,5.16c-.95.98-.93,2.55.06,3.5l7.21,6.97c.98.95,2.55.92,3.5-.06l8.44-8.72c5.13-5.31,4.99-13.78-.32-18.91l-24.21-23.41c-5.31-5.13-13.78-4.99-18.91.32Z"/>
        <path class="cls-15" d="m241.44,225.49c-10.36-11.48-28.23-12.68-41.21-5.29-4.32,2.45-8.13,5.9-10.86,10.44,1.18-5.28,4.79-9.88,9.14-13.07,12.9-9.81,35.63-7.62,42.93,7.92h0Z"/>
        <path class="cls-15" d="m237.49,229.59c-8.91-9.24-23.47-10.12-34.35-4.17-3.61,1.97-6.83,4.75-9.25,8.48.87-4.48,3.89-8.41,7.53-11.12,10.8-8.35,30.2-6.48,36.07,6.81h0Z"/>
        <path class="cls-15" d="m233.13,233.94c-7.3-6.77-18.24-7.31-26.81-2.95-2.82,1.46-5.39,3.49-7.47,6.34,1.2-7.38,8.9-12.3,16.03-12.98,7.13-.83,15.66,2.57,18.24,9.59h0Z"/>
        <path class="cls-15" d="m229.54,238.52c-7.82-6.65-20.03-5.31-26.45,2.61.5-5.96,6.6-10.22,12.3-10.74,5.7-.68,12.54,2.37,14.15,8.13h0Z"/>
        <path class="cls-1" d="m215.94,301.19c-1.46-.19-2.95-.29-4.46-.29-19.28,0-34.91,15.63-34.91,34.91s15.63,34.91,34.91,34.91c10.59,0,20.06-4.72,26.47-12.16l-22-57.38Z"/>
        <path class="cls-5" d="m186.3,427.98c14.85-7.5,25.04-22.88,25.04-40.66,0-25.15-20.39-45.53-45.53-45.53-4.13,0-8.13.56-11.94,1.59l32.44,84.6Z"/>
      </g>
    </g>
  </g>
</svg>